<svg xmlns="http://www.w3.org/2000/svg" viewBox="0 0 512 512" width="512" height="512">
  <defs>
    <linearGradient id="logoGradient" x1="0%" y1="0%" x2="100%" y2="100%">
      <stop offset="0%" style="stop-color:#4991e2;stop-opacity:1" />
      <stop offset="100%" style="stop-color:#8b5cf6;stop-opacity:1" />
    </linearGradient>
    <filter id="glow" x="-20%" y="-20%" width="140%" height="140%">
      <feGaussianBlur stdDeviation="15" result="blur" />
      <feComposite in="SourceGraphic" in2="blur" operator="over" />
    </filter>
  </defs>
  
  <!-- Main Document Shape -->
  <path d="M96 64 C96 46.3 110.3 32 128 32 L 320 32 L 416 128 L 416 448 C 416 465.7 401.7 480 384 480 L 128 480 C 110.3 480 96 465.7 96 448 Z" fill="url(#logoGradient)" opacity="0.9" />
  
  <!-- Folded Corner -->
  <path d="M320 32 L 320 128 L 416 128 Z" fill="#ffffff" fill-opacity="0.4" />
  
  <!-- P Cutout / Overlay -->
  <path d="M192 160 L 272 160 C 316.2 160 352 195.8 352 240 C 352 284.2 316.2 320 272 320 L 240 320 L 240 384 L 192 384 Z M 240 208 L 240 272 L 272 272 C 289.7 272 304 257.7 304 240 C 304 222.3 289.7 208 272 208 Z" fill="#ffffff" />
</svg>
